<svg width="25" height="25" viewBox="0 0 25 25" fill="none" xmlns="http://www.w3.org/2000/svg">
<g clip-path="url(#clip0)">
<path d="M7.6087 18.75H0V21.4674H7.6087V18.75Z" fill="#8992A4"/>
<path d="M16.304 18.75H8.69531V21.4674H16.304V18.75Z" fill="#8992A4"/>
<path d="M11.9564 14.9457H4.34766V17.663H11.9564V14.9457Z" fill="#8992A4"/>
<path d="M7.6087 11.1412H0V13.8586H7.6087V11.1412Z" fill="#8992A4"/>
<path d="M16.304 11.1412H8.69531V13.8586H16.304V11.1412Z" fill="#8992A4"/>
<path d="M11.9564 7.33691H4.34766V10.0543H11.9564V7.33691Z" fill="#8992A4"/>
<path d="M20.6517 14.9457H13.043V17.663H20.6517V14.9457Z" fill="#8992A4"/>
<path d="M20.6517 7.33691H13.043V10.0543H20.6517V7.33691Z" fill="#8992A4"/>
<path d="M7.6087 3.53259H0V6.24996H7.6087V3.53259Z" fill="#8992A4"/>
<path d="M16.304 3.53259H8.69531V6.24996H16.304V3.53259Z" fill="#8992A4"/>
<path d="M25.0003 18.75H17.3916V21.4674H25.0003V18.75Z" fill="#8992A4"/>
<path d="M25.0003 11.1412H17.3916V13.8586H25.0003V11.1412Z" fill="#8992A4"/>
<path d="M25.0003 3.53259H17.3916V6.24996H25.0003V3.53259Z" fill="#8992A4"/>
</g>
<defs>
<clipPath id="clip0">
<rect width="25" height="25" fill="white"/>
</clipPath>
</defs>
</svg>
