<svg width="15" height="15" viewBox="0 0 15 15" fill="none" xmlns="http://www.w3.org/2000/svg">
<g clip-path="url(#clip0)">
<path d="M9.10654 12.7888H8.11165V3.67108H12.3045L10.5285 6.48922C10.4384 6.63211 10.4813 6.82105 10.6242 6.91108C10.6749 6.94304 10.7312 6.9582 10.787 6.9582C10.8885 6.9582 10.9879 6.90762 11.046 6.81544L12.5863 4.37129L14.1265 6.81544C14.2166 6.95833 14.4055 7.00118 14.5484 6.91108C14.6913 6.82105 14.734 6.63211 14.644 6.48922L12.8681 3.67108H12.8905C13.1523 3.67108 13.3646 3.4588 13.3646 3.19698C13.3646 2.9352 13.1524 2.72292 12.8905 2.72292H9.40282C9.20586 2.43642 8.91519 2.2195 8.57489 2.11653C8.52627 1.56541 8.06368 1.13318 7.49991 1.13318C6.9361 1.13318 6.47355 1.56541 6.4249 2.11653C6.08459 2.2195 5.79392 2.43642 5.59699 2.72292H2.1093C1.84745 2.72292 1.63517 2.9352 1.63517 3.19698C1.63517 3.4588 1.84742 3.67108 2.1093 3.67108H2.13173L0.355733 6.48922C0.265668 6.63211 0.308515 6.82105 0.451407 6.91108C0.502081 6.94304 0.558461 6.9582 0.614189 6.9582C0.715733 6.9582 0.815124 6.90762 0.873265 6.81544L2.41354 4.37129L3.95378 6.81544C4.04384 6.95833 4.23274 7.00118 4.37563 6.91108C4.51856 6.82105 4.56137 6.63211 4.47134 6.48922L2.69537 3.67108H6.8882V12.7887H5.89334C5.29794 12.7887 4.81523 13.2714 4.81523 13.8668H10.1846C10.1846 13.2714 9.70191 12.7888 9.10654 12.7888Z" fill="white"/>
<path d="M4.66419 7.28345H0.163043C0.0730109 7.28345 0 7.35643 0 7.44649C0 8.77736 1.08274 9.8601 2.41363 9.8601C3.74449 9.8601 4.82726 8.77736 4.82726 7.44649C4.82723 7.35646 4.75422 7.28345 4.66419 7.28345Z" fill="white"/>
<path d="M14.837 7.28345H10.3359C10.2459 7.28345 10.1729 7.35643 10.1729 7.44649C10.1729 8.77736 11.2556 9.8601 12.5865 9.8601C13.9174 9.8601 15.0001 8.77736 15.0001 7.44649C15.0001 7.35646 14.927 7.28345 14.837 7.28345Z" fill="white"/>
</g>
<defs>
<clipPath id="clip0">
<rect width="15" height="15" fill="white"/>
</clipPath>
</defs>
</svg>
