<svg width="50" height="50" viewBox="0 0 50 50" fill="none" xmlns="http://www.w3.org/2000/svg">
<path d="M24.9995 0C24.4377 0 23.9883 0.449438 23.9883 1.01124V37.7937L16.4397 30.2451C16.0414 29.8468 15.4081 29.8468 15.0097 30.2451C14.6113 30.6435 14.6113 31.2768 15.0097 31.6752L24.2845 40.9499C24.4786 41.144 24.7441 41.2462 24.9995 41.2462C25.2549 41.2462 25.5204 41.144 25.7145 40.9499L34.9893 31.6752C35.3877 31.2768 35.3877 30.6435 34.9893 30.2451C34.5909 29.8468 33.9576 29.8468 33.5593 30.2451L26.0107 37.7937V1.01124C26.0107 0.449438 25.5613 0 24.9995 0Z" fill="white"/>
</svg>
