<svg width="15" height="15" viewBox="0 0 15 15" fill="none" xmlns="http://www.w3.org/2000/svg">
<path d="M13.125 1.875H1.875C0.839531 1.875 0 2.71453 0 3.75V11.25C0 12.2855 0.839531 13.125 1.875 13.125H13.125C14.1605 13.125 15 12.2855 15 11.25V3.75C15 2.71453 14.1605 1.875 13.125 1.875ZM10.0387 6.87835L14.0076 3.47716C14.035 3.56505 14.0625 3.65294 14.0625 3.75V11.25C14.0625 11.315 14.0378 11.3727 14.025 11.434L10.0387 6.87835ZM13.125 2.8125C13.1873 2.8125 13.2422 2.83632 13.3008 2.84821L7.5 7.82045L1.69922 2.84821C1.75781 2.83632 1.81274 2.8125 1.875 2.8125H13.125ZM0.97459 11.4331C0.961758 11.3718 0.9375 11.315 0.9375 11.25V3.75C0.9375 3.65294 0.96542 3.56505 0.9929 3.47716L4.96034 6.87744L0.97459 11.4331ZM1.875 12.1875C1.78025 12.1875 1.69418 12.16 1.60767 12.1335L5.67261 7.48808L7.19514 8.7927C7.28256 8.86872 7.39151 8.90625 7.5 8.90625C7.60849 8.90625 7.71744 8.86872 7.80486 8.79272L9.32739 7.48811L13.3923 12.1335C13.3063 12.16 13.2202 12.1875 13.125 12.1875H1.875Z" fill="white"/>
</svg>
