<svg width="25" height="25" viewBox="0 0 25 25" fill="none" xmlns="http://www.w3.org/2000/svg">
<g clip-path="url(#clip0)">
<path d="M24.7144 22.8811V21.2608C24.7144 20.1595 24.0708 19.5159 22.9695 19.5159H12.0013C10.5211 19.5159 9.75781 20.2168 9.75781 21.2608V23.3642C9.75781 24.4546 10.4902 25 12.0013 25H22.9695C24.0708 25 24.7144 24.2676 24.7144 22.8811ZM22.7202 23.0058H11.752V21.5101H22.7202V23.0058Z" fill="#8992A4"/>
<path d="M16.2386 8.04917V8.5477V12.8208V12.8213L16.8738 14.5303H15.8049L5.3761 0L3.07824 1.38599L3.77473 2.60692V9.04623H3.03888L3.53345 12.5361H3.74981H3.77473V13.5906C3.32605 13.7945 2.82747 14.2322 2.82747 15.0184C2.82747 15.5464 3.03341 15.9318 3.33449 16.1891L0.630859 18.5188H1.39466L3.78923 16.4553C4.00611 16.5401 4.23791 16.5869 4.46726 16.5869C4.6976 16.5869 4.92642 16.5256 5.13283 16.4144L7.7288 18.5188H8.50704L8.51252 18.5118L5.5262 16.0913C5.72859 15.8475 5.86274 15.5205 5.86274 15.1021C5.86274 14.8264 5.63939 14.6036 5.36421 14.6036C5.08899 14.6036 4.86569 14.8264 4.86569 15.1021C4.86569 15.2812 4.8173 15.3933 4.75401 15.4656L4.61741 15.3549C4.52419 15.2796 4.38906 15.2806 4.29787 15.3599L4.11091 15.521C3.94934 15.4462 3.82473 15.2996 3.82473 15.0189C3.82473 14.5682 4.27196 14.4591 4.35621 14.4431C4.59651 14.4017 4.772 14.1943 4.772 13.951V12.5361H5.121H5.32537L6.02285 9.04618H5.51984H5.27042V5.42765L11.2531 16.9418V17.0211V17.1711V17.5216H13.2473V18.5187H20.227H20.7256V17.5216H23.2183H23.7168V8.04917H16.2386ZM11.9261 10.6417L11.9321 10.6501L9.89799 11.9738L10.9439 9.29059L11.9261 10.6417ZM4.77184 9.04628H4.52258H4.27331V3.5472L4.77184 4.48748V9.04628ZM5.20556 3.96403L4.3451 2.32976L5.68673 1.44783L5.20556 3.96403ZM6.37222 2.46584L7.32845 4.12503L5.78495 5.11916L6.37222 2.46584ZM6.52524 6.07237L7.97953 5.12662L7.4102 7.71659L6.52524 6.07237ZM8.59427 5.9717L9.66666 7.53563L8.05434 8.56814L8.59427 5.9717ZM8.42873 9.75971L10.2305 8.52528L9.20447 11.2733L8.42873 9.75971ZM11.0955 14.5004L10.2266 12.9669L12.3837 11.4264L11.0955 14.5004ZM11.7725 15.5898L13.2472 12.4115L14.4468 14.0473L11.7725 15.5898ZM21.7227 13.0347H18.2328V10.0434H21.7227V13.0347Z" fill="#8992A4"/>
<path d="M0.783684 21.5101H0.285156V22.5072H8.26202V21.5101H7.26491V20.513V20.0144H8.26202V19.0173H0.285156V20.0144H1.28226V21.5101H0.783684Z" fill="#8992A4"/>
</g>
<defs>
<clipPath id="clip0">
<rect width="25" height="25" fill="white"/>
</clipPath>
</defs>
</svg>
