<svg width="15" height="15" viewBox="0 0 15 15" fill="none" xmlns="http://www.w3.org/2000/svg">
<path d="M7.49981 0C4.50436 0 2.06738 2.43697 2.06738 5.4324C2.06738 9.14982 6.92888 14.6072 7.13586 14.8377C7.33027 15.0543 7.66971 15.0539 7.86377 14.8377C8.07075 14.6072 12.9322 9.14982 12.9322 5.4324C12.9322 2.43697 10.4952 0 7.49981 0ZM7.49981 8.1656C5.99272 8.1656 4.76665 6.93949 4.76665 5.4324C4.76665 3.92531 5.99275 2.69924 7.49981 2.69924C9.00688 2.69924 10.2329 3.92534 10.2329 5.43243C10.2329 6.93952 9.00688 8.1656 7.49981 8.1656Z" fill="#1D87FA"/>
</svg>
