<svg width="150" height="39" viewBox="0 0 150 39" fill="none" xmlns="http://www.w3.org/2000/svg">
<g clip-path="url(#clip0)">
<path d="M22.704 14.4898L16.2244 10.2041H16.1733V24.3878H21.6325C22.5509 24.3878 23.3162 23.6735 23.3162 22.7041L23.4182 15.8163C23.4182 15.3061 23.1121 14.7959 22.704 14.4898Z" fill="#1D87FA"/>
<path d="M9.79592 14.4388L16.2245 10.2041V0.153076C7.29592 0.153076 0 7.44899 0 16.3776C0 21.2755 2.14286 25.6123 5.5102 28.5714L16.2245 38.1123V32.6531V28.3674V24.3878H10.7143C9.79592 24.3878 9.03061 23.6225 9.03061 22.7041L9.08163 15.8163C9.03061 15.2041 9.28571 14.6939 9.79592 14.4388Z" fill="#1D87FA"/>
<path d="M52.0411 21.3775C50.1533 23.2653 47.7553 24.2347 44.8982 24.2347C42.0411 24.2347 39.6431 23.3163 37.8064 21.4286C35.9186 19.5408 34.9492 17.2449 34.9492 14.5408C34.9492 11.8877 35.9186 9.59182 37.8064 7.65304C39.6941 5.76529 42.0921 4.7959 44.9492 4.7959C47.8064 4.7959 50.2043 5.71427 52.0411 7.60202C53.9288 9.48978 54.8982 11.7857 54.8982 14.4898C54.8472 17.2449 53.9288 19.5408 52.0411 21.3775ZM40.8676 18.7245C41.888 19.8469 43.2655 20.4081 44.9492 20.4081C46.5819 20.4081 47.9594 19.8469 48.9798 18.7245C50.0002 17.602 50.5615 16.1734 50.5615 14.5408C50.5615 12.9081 50.0513 11.4796 48.9288 10.3571C47.8064 9.23467 46.5309 8.67345 44.8472 8.67345C43.1635 8.67345 41.837 9.33671 40.8166 10.4081C39.7962 11.5306 39.2349 12.9592 39.2349 14.5918C39.337 16.2245 39.8472 17.551 40.8676 18.7245Z" fill="#1D87FA"/>
<path d="M62.5001 24.1326C60.2042 24.1326 58.2144 23.4183 56.3267 21.9897L58.0614 19.3367C59.643 20.4591 61.1226 21.0203 62.6022 21.0203C63.7246 21.0203 64.2858 20.6122 64.2858 19.8979C64.2858 19.8469 64.2858 19.6938 64.2348 19.6428C64.2348 19.5918 64.1838 19.4897 64.0818 19.3877C64.0307 19.3367 63.9287 19.2346 63.8267 19.1836C63.7756 19.1326 63.6226 19.0305 63.5205 18.9795C63.3675 18.9285 63.2654 18.8265 63.2144 18.8265C63.0614 18.7754 62.9593 18.6734 62.7552 18.6734C62.5512 18.6224 62.4491 18.5203 62.296 18.5203C62.143 18.5203 62.0409 18.4693 61.7858 18.3673C61.5818 18.3163 61.3777 18.2142 61.2756 18.2142C60.7144 18.0101 60.1532 17.8061 59.694 17.653C59.2348 17.4489 58.8267 17.1938 58.4185 16.8877C57.9593 16.5816 57.5511 16.1734 57.3981 15.6122C57.143 15.102 56.9899 14.4897 56.9899 13.8775C56.9899 12.4489 57.5001 11.3265 58.4695 10.5612C59.4389 9.79585 60.7654 9.33667 62.245 9.33667C64.1838 9.33667 65.9695 9.89789 67.5512 11.0203L65.9695 13.8265C64.4899 12.9081 63.1634 12.4489 62.092 12.4489C61.1226 12.4489 60.6124 12.755 60.6124 13.4693C60.6124 13.9285 61.4797 14.4387 63.0614 15.051C63.2654 15.102 63.3675 15.204 63.5205 15.204C63.9797 15.3571 64.4389 15.5101 64.745 15.6632C65.0512 15.8163 65.4593 15.9693 65.9185 16.2244C66.3777 16.4795 66.6838 16.7346 66.9389 16.9897C67.194 17.2448 67.3981 17.653 67.6022 18.0101C67.8063 18.3673 67.8573 18.9285 67.8573 19.4387C67.8573 21.0203 67.3471 22.0918 66.3777 22.9081C65.4593 23.7244 64.1328 24.1326 62.5001 24.1326Z" fill="#1D87FA"/>
<path d="M74.7963 24.1325C73.4188 24.1325 72.3983 23.8264 71.6841 23.1631C70.9698 22.4998 70.5616 21.4284 70.5616 19.8468V13.0611H68.8779V9.54065H70.5616V5.81616H74.6432V9.54065H78.0106V13.0611H74.6432V19.1835C74.6432 20.1019 75.1024 20.6121 75.9187 20.6121C76.633 20.6121 77.2963 20.459 77.9085 20.1019V23.3672C77.0922 23.8774 75.9698 24.1325 74.7963 24.1325Z" fill="#1D87FA"/>
<path d="M80.4087 23.8774V9.48969H84.4903V12.3468C85.4087 10.153 86.9393 9.08153 89.0312 9.23459V13.4693H88.8271C87.3985 13.4693 86.3781 13.9285 85.5618 14.7448C84.7964 15.6121 84.4393 16.8876 84.4393 18.5203V23.7754L80.4087 23.8774Z" fill="#1D87FA"/>
<path d="M103.061 21.9897C101.582 23.4183 99.7451 24.1326 97.5512 24.1326C95.3574 24.1326 93.5206 23.4183 92.041 21.9897C90.5614 20.5612 89.8472 18.8265 89.8472 16.6836C89.8472 14.5918 90.5615 12.8571 92.1431 11.4285C93.6227 9.99993 95.4594 9.28564 97.6533 9.28564C99.8472 9.28564 101.684 9.99993 103.163 11.4285C104.643 12.8571 105.357 14.5918 105.357 16.7346C105.306 18.7754 104.592 20.5612 103.061 21.9897ZM97.5512 20.6632C98.6737 20.6632 99.541 20.255 100.204 19.4897C100.919 18.7244 101.174 17.8061 101.174 16.6326C101.174 15.5101 100.868 14.6428 100.153 13.8265C99.439 13.0612 98.5206 12.653 97.3982 12.653C96.2757 12.653 95.4084 13.0612 94.7451 13.8265C94.0308 14.5918 93.7757 15.5101 93.7757 16.6836C93.7757 17.8061 94.0819 18.6734 94.7961 19.4897C95.6125 20.3061 96.4288 20.6632 97.5512 20.6632Z" fill="#1D87FA"/>
<path d="M110.204 28.2142C108.929 28.2142 107.755 27.9081 106.582 27.2449L107.959 24.3367C108.623 24.7449 109.184 24.8979 109.694 24.8979C110.357 24.8979 110.817 24.5918 111.123 23.9795L105.459 9.54077H109.745L113.01 19.2857L116.123 9.54077H120.357L114.847 24.2346C114.286 25.7142 113.674 26.7857 112.959 27.3469C112.347 27.9081 111.378 28.2142 110.204 28.2142Z" fill="#1D87FA"/>
<path d="M122.194 23.8775V4.3877H126.276V14.7959L131.021 9.59178H135.919L130.46 15.255L136.123 23.9795H131.429L127.654 18.1122L126.225 19.5918V23.9285L122.194 23.8775Z" fill="#1D87FA"/>
<path d="M143.419 24.1326C141.276 24.1326 139.439 23.4183 138.011 22.0407C136.582 20.6632 135.868 18.8775 135.868 16.6326C135.868 14.5407 136.531 12.806 137.857 11.3775C139.184 9.9489 140.919 9.23462 142.909 9.23462C145.204 9.23462 146.888 9.9489 148.113 11.5305C149.337 13.1122 149.949 14.8979 149.949 17.0407C149.949 17.2448 149.949 17.602 149.898 18.1632H139.949C140.153 19.0816 140.511 19.7958 141.174 20.255C141.735 20.7142 142.551 20.9693 143.47 20.9693C144.745 20.9693 145.868 20.4591 146.99 19.4897L149.337 21.5816C147.857 23.2142 145.919 24.1326 143.419 24.1326ZM139.949 15.5612H146.072C145.919 14.6428 145.613 13.8775 145.102 13.3673C144.592 12.806 143.878 12.4999 143.113 12.4999C142.245 12.4999 141.633 12.755 141.123 13.3673C140.46 13.8775 140.102 14.5918 139.949 15.5612Z" fill="#1D87FA"/>
</g>
<defs>
<clipPath id="clip0">
<rect width="150" height="38.2653" fill="white"/>
</clipPath>
</defs>
</svg>
