<svg width="10" height="10" viewBox="0 0 10 10" fill="none" xmlns="http://www.w3.org/2000/svg">
<path d="M5.01227 0C2.24967 0 0 2.24988 0 5.02486C0 7.77467 2.24967 10 5.01227 10C7.77488 10 10 7.78694 10 5.02486C10 2.24988 7.67491 0 5.01227 0ZM5.01227 9.33675C2.63757 9.33675 0.687583 7.39988 0.687583 5.02496C0.687583 2.63788 2.63767 0.662303 5.01227 0.662303C7.37512 0.662303 9.31242 2.65005 9.31242 5.02496C9.31242 7.37502 7.37523 9.33675 5.01227 9.33675Z" fill="#E04F5F"/>
<path d="M6.93767 2.37523C6.62581 2.37523 6.50026 2.51274 6.36295 2.78788L5.01264 5.6002H5.00037L3.63779 2.78778C3.50007 2.51253 3.37535 2.37512 3.06276 2.37512C2.65032 2.37512 2.5127 2.63757 2.5127 2.88743V7.24967C2.5127 7.48778 2.70056 7.62467 2.92514 7.62467C3.12507 7.62467 3.35007 7.48767 3.35007 7.24967V4.00004H3.36276L4.6002 6.52495C4.68779 6.69992 4.80055 6.80041 5.00048 6.80041C5.19988 6.80041 5.31296 6.69992 5.40044 6.52495L6.63767 4.00004H6.65036V7.24967C6.65036 7.48778 6.87515 7.62467 7.07518 7.62467C7.30039 7.62467 7.48763 7.48767 7.48763 7.24967V2.88753C7.48752 2.63767 7.35042 2.37523 6.93767 2.37523Z" fill="#E04F5F"/>
</svg>
