<svg width="35" height="35" viewBox="0 0 35 35" fill="none" xmlns="http://www.w3.org/2000/svg">
<path d="M17.4997 0C11.0665 0 5.83301 5.23135 5.83301 11.661V23.3397C5.83301 29.7691 11.0665 35 17.4997 35C23.9328 35 29.1663 29.7693 29.1663 23.3397V11.661C29.1663 5.23135 23.9327 0 17.4997 0ZM27.8701 23.3397C27.8701 29.0546 23.2179 33.7037 17.4997 33.7037C11.7814 33.7037 7.12929 29.0546 7.12929 23.3397V11.661C7.12929 5.94611 11.7814 1.29628 17.4997 1.29628C23.2179 1.29628 27.8701 5.94594 27.8701 11.661V23.3397Z" fill="white"/>
<path d="M17.4998 3.88884C17.1418 3.88884 16.8516 4.17877 16.8516 4.53706V10.4065C16.8516 10.7648 17.1418 11.0547 17.4998 11.0547C17.8577 11.0547 18.148 10.7648 18.148 10.4065V4.53706C18.1478 4.17877 17.8577 3.88884 17.4998 3.88884Z" fill="white"/>
</svg>
