<svg width="45" height="45" viewBox="0 0 45 45" fill="none" xmlns="http://www.w3.org/2000/svg">
<path d="M44.0634 41.2513H43.1255V32.8137C43.1255 32.2946 42.7066 31.8743 42.1876 31.8743H30.0009V21.563C30.0009 21.0453 29.5807 20.6251 29.063 20.6251H28.125V17.8125C28.125 17.2948 27.7061 16.8753 27.1884 16.8753H23.438V14.9328C25.351 14.6582 26.9989 13.5568 28.0069 12.0029C31.8562 10.3117 32.764 5.0685 32.8011 4.84051C32.8464 4.56858 32.7695 4.29119 32.5909 4.08104C32.4124 3.8716 32.1515 3.75004 31.8754 3.75004H29.0629V2.81276C29.0629 2.295 28.644 1.87549 28.1249 1.87549H16.875C16.3587 1.87549 15.9384 2.295 15.9384 2.81276V3.75004H13.1259C12.8513 3.75004 12.5891 3.8716 12.4119 4.08104C12.2334 4.29119 12.1565 4.56858 12.2004 4.84051C12.2389 5.0685 13.1452 10.3117 16.9931 12.0029C18.0039 13.5568 19.6519 14.6582 21.5634 14.9328V16.8754H17.813C17.2952 16.8754 16.875 17.2948 16.875 17.8126V20.6252H15.9384C15.4207 20.6252 15.0005 21.0454 15.0005 21.5631V28.1255H2.81253C2.29617 28.1255 1.87596 28.5457 1.87596 29.062V41.2514H0.93798C0.42021 41.2514 0 41.6703 0 42.188C0 42.7056 0.42021 43.1245 0.93798 43.1245H2.81253H15.9384H29.063H42.1876H44.0634C44.5812 43.1245 45 42.7056 45 42.188C45 41.6703 44.5811 41.2513 44.0634 41.2513ZM29.063 8.43783V5.6253H30.6821C30.4102 6.52689 29.9062 7.82329 29.0478 8.87237C29.0588 8.72822 29.063 8.58399 29.063 8.43783ZM14.3234 5.6253H15.9384V8.43783C15.9384 8.58127 15.9439 8.72409 15.9522 8.86551C15.1007 7.81846 14.5953 6.52478 14.3234 5.6253ZM15.0005 41.2513H3.75051V30.0012H15.0005V41.2513ZM17.813 8.43783V3.75004H27.1884V8.43783C27.1884 11.0223 25.0845 13.1255 22.5 13.1255C19.9155 13.1255 17.813 11.0224 17.813 8.43783ZM18.751 18.7505H26.2504V20.6251H18.751V18.7505ZM28.125 32.8137V41.2513H16.875V29.062V22.5003H17.813H27.1884H28.125V32.8137ZM41.251 41.2513H30.0009V33.7503H41.251V41.2513Z" fill="#273341"/>
<path d="M23.438 9.37521V6.56277C23.438 6.045 23.0191 5.62549 22.5 5.62549C21.9837 5.62549 21.5635 6.045 21.5635 6.56277V9.37521C21.5635 9.89298 21.9837 10.3132 22.5 10.3132C23.0191 10.3132 23.438 9.89298 23.438 9.37521Z" fill="#273341"/>
</svg>
