<svg width="25" height="25" viewBox="0 0 25 25" fill="none" xmlns="http://www.w3.org/2000/svg">
<path d="M24.5833 24.1667H22.0833V10.4167C22.0833 10.1866 21.8968 10 21.6667 10H15.8333V0.416667C15.8333 0.186562 15.6468 0 15.4167 0H4.58333C4.35323 0 4.16667 0.186562 4.16667 0.416667V24.1667H0.416667C0.186562 24.1667 0 24.3532 0 24.5833C0 24.8134 0.186562 25 0.416667 25H24.5833C24.8134 25 25 24.8134 25 24.5833C25 24.3532 24.8134 24.1667 24.5833 24.1667ZM8.75 24.1667H7.08333V20.4167C7.08333 20.1866 7.2699 20 7.5 20H8.33333C8.56344 20 8.75 20.1866 8.75 20.4167V24.1667ZM10.4167 10.4167V24.1667H9.58333V20.4167C9.58333 19.7263 9.0237 19.1667 8.33333 19.1667H7.5C6.80964 19.1667 6.25 19.7263 6.25 20.4167V24.1667H5V0.833333H15V10H10.8333C10.6032 10 10.4167 10.1866 10.4167 10.4167ZM21.25 24.1667H11.25V10.8333H21.25V24.1667Z" fill="#E9ECED" fill-opacity="0.55"/>
<path d="M13.3337 5.83331H10.8337C10.6036 5.83331 10.417 6.01988 10.417 6.24998V8.74998C10.417 8.98008 10.6036 9.16665 10.8337 9.16665H13.3337C13.5638 9.16665 13.7503 8.98008 13.7503 8.74998V6.24998C13.7503 6.01988 13.5638 5.83331 13.3337 5.83331ZM12.917 8.33331H11.2503V6.66665H12.917V8.33331Z" fill="#E9ECED" fill-opacity="0.55"/>
<path d="M13.3337 1.66669H10.8337C10.6036 1.66669 10.417 1.85325 10.417 2.08335V4.58335C10.417 4.81346 10.6036 5.00002 10.8337 5.00002H13.3337C13.5638 5.00002 13.7503 4.81346 13.7503 4.58335V2.08335C13.7503 1.85325 13.5638 1.66669 13.3337 1.66669ZM12.917 4.16669H11.2503V2.50002H12.917V4.16669Z" fill="#E9ECED" fill-opacity="0.55"/>
<path d="M9.16667 5.83331H6.66667C6.43656 5.83331 6.25 6.01988 6.25 6.24998V8.74998C6.25 8.98008 6.43656 9.16665 6.66667 9.16665H9.16667C9.39677 9.16665 9.58333 8.98008 9.58333 8.74998V6.24998C9.58333 6.01988 9.39677 5.83331 9.16667 5.83331ZM8.75 8.33331H7.08333V6.66665H8.75V8.33331Z" fill="#E9ECED" fill-opacity="0.55"/>
<path d="M9.16667 1.66669H6.66667C6.43656 1.66669 6.25 1.85325 6.25 2.08335V4.58335C6.25 4.81346 6.43656 5.00002 6.66667 5.00002H9.16667C9.39677 5.00002 9.58333 4.81346 9.58333 4.58335V2.08335C9.58333 1.85325 9.39677 1.66669 9.16667 1.66669ZM8.75 4.16669H7.08333V2.50002H8.75V4.16669Z" fill="#E9ECED" fill-opacity="0.55"/>
<path d="M9.16667 10H6.66667C6.43656 10 6.25 10.1866 6.25 10.4167V12.9167C6.25 13.1468 6.43656 13.3333 6.66667 13.3333H9.16667C9.39677 13.3333 9.58333 13.1468 9.58333 12.9167V10.4167C9.58333 10.1866 9.39677 10 9.16667 10ZM8.75 12.5H7.08333V10.8333H8.75V12.5Z" fill="#E9ECED" fill-opacity="0.55"/>
<path d="M9.16667 14.1667H6.66667C6.43656 14.1667 6.25 14.3532 6.25 14.5834V17.0834C6.25 17.3135 6.43656 17.5 6.66667 17.5H9.16667C9.39677 17.5 9.58333 17.3135 9.58333 17.0834V14.5834C9.58333 14.3532 9.39677 14.1667 9.16667 14.1667ZM8.75 16.6667H7.08333V15H8.75V16.6667Z" fill="#E9ECED" fill-opacity="0.55"/>
<path d="M17.0837 19.1666H19.5837C19.8138 19.1666 20.0003 18.9801 20.0003 18.75V16.25C20.0003 16.0199 19.8138 15.8333 19.5837 15.8333H17.0837C16.8536 15.8333 16.667 16.0199 16.667 16.25V18.75C16.667 18.9801 16.8536 19.1666 17.0837 19.1666ZM17.5003 16.6666H19.167V18.3333H17.5003V16.6666Z" fill="#E9ECED" fill-opacity="0.55"/>
<path d="M17.0837 15H19.5837C19.8138 15 20.0003 14.8135 20.0003 14.5834V12.0834C20.0003 11.8532 19.8138 11.6667 19.5837 11.6667H17.0837C16.8536 11.6667 16.667 11.8532 16.667 12.0834V14.5834C16.667 14.8135 16.8536 15 17.0837 15ZM17.5003 12.5H19.167V14.1667H17.5003V12.5Z" fill="#E9ECED" fill-opacity="0.55"/>
<path d="M17.0837 23.3333H19.5837C19.8138 23.3333 20.0003 23.1468 20.0003 22.9167V20.4167C20.0003 20.1866 19.8138 20 19.5837 20H17.0837C16.8536 20 16.667 20.1866 16.667 20.4167V22.9167C16.667 23.1468 16.8536 23.3333 17.0837 23.3333ZM17.5003 20.8333H19.167V22.5H17.5003V20.8333Z" fill="#E9ECED" fill-opacity="0.55"/>
<path d="M12.9167 19.1666H15.4167C15.6468 19.1666 15.8333 18.9801 15.8333 18.75V16.25C15.8333 16.0199 15.6468 15.8333 15.4167 15.8333H12.9167C12.6866 15.8333 12.5 16.0199 12.5 16.25V18.75C12.5 18.9801 12.6866 19.1666 12.9167 19.1666ZM13.3333 16.6666H15V18.3333H13.3333V16.6666Z" fill="#E9ECED" fill-opacity="0.55"/>
<path d="M12.9167 15H15.4167C15.6468 15 15.8333 14.8135 15.8333 14.5834V12.0834C15.8333 11.8532 15.6468 11.6667 15.4167 11.6667H12.9167C12.6866 11.6667 12.5 11.8532 12.5 12.0834V14.5834C12.5 14.8135 12.6866 15 12.9167 15ZM13.3333 12.5H15V14.1667H13.3333V12.5Z" fill="#E9ECED" fill-opacity="0.55"/>
<path d="M12.9167 23.3333H15.4167C15.6468 23.3333 15.8333 23.1468 15.8333 22.9167V20.4167C15.8333 20.1866 15.6468 20 15.4167 20H12.9167C12.6866 20 12.5 20.1866 12.5 20.4167V22.9167C12.5 23.1468 12.6866 23.3333 12.9167 23.3333ZM13.3333 20.8333H15V22.5H13.3333V20.8333Z" fill="#E9ECED" fill-opacity="0.55"/>
</svg>
