<svg width="25" height="25" viewBox="0 0 25 25" fill="none" xmlns="http://www.w3.org/2000/svg">
<path d="M24.2011 22.771L18.251 16.5827C19.7809 14.7641 20.6191 12.4759 20.6191 10.0937C20.6191 4.52814 16.091 0 10.5254 0C4.95978 0 0.431641 4.52814 0.431641 10.0937C0.431641 15.6593 4.95978 20.1875 10.5254 20.1875C12.6148 20.1875 14.6059 19.5573 16.3082 18.361L22.3035 24.5963C22.554 24.8565 22.8911 25 23.2523 25C23.5941 25 23.9185 24.8697 24.1647 24.6327C24.6878 24.1293 24.7045 23.2946 24.2011 22.771ZM10.5254 2.63315C14.6392 2.63315 17.986 5.97988 17.986 10.0937C17.986 14.2076 14.6392 17.5543 10.5254 17.5543C6.41152 17.5543 3.06479 14.2076 3.06479 10.0937C3.06479 5.97988 6.41152 2.63315 10.5254 2.63315Z" fill="white"/>
</svg>
