<svg width="25" height="25" viewBox="0 0 25 25" fill="none" xmlns="http://www.w3.org/2000/svg">
<g clip-path="url(#clip0)">
<path d="M6.75684 22.6087H11.1728V18.093H13.8272V22.6087H18.2432V2.3913H6.75684V22.6087ZM13.3058 4.77392H15.9601V7.4283H13.3058V4.77392ZM13.3058 9.03989H15.9601V11.6943H13.3058V9.03989ZM13.3058 13.3057H15.9601V15.9601H13.3058V13.3057ZM9.03987 4.77392H11.6942V7.4283H9.03987V4.77392ZM9.03987 9.03989H11.6942V11.6943H9.03987V9.03989ZM9.03987 13.3057H11.6942V15.9601H9.03987V13.3057Z" fill="#8992A4"/>
<path d="M19.2744 4.20239V18.4976H20.9797V22.6087H25.0001V4.20239H19.2744ZM22.9216 16.5558H20.505V14.1393H22.9216V16.5558H22.9216ZM22.9216 12.672H20.505V10.2555H22.9216V12.672H22.9216ZM22.9216 8.78817H20.505V6.37166H22.9216V8.78817H22.9216Z" fill="#8992A4"/>
<path d="M0 22.6087H4.02042V18.4976H5.72572V4.20239H0V22.6087ZM2.07855 6.37166H4.49511V8.78817H2.07855V6.37166ZM2.07855 10.2555H4.49511V12.672H2.07855V10.2555ZM2.07855 14.1392H4.49511V16.5557H2.07855V14.1392Z" fill="#8992A4"/>
</g>
<defs>
<clipPath id="clip0">
<rect width="25" height="25" fill="white"/>
</clipPath>
</defs>
</svg>
